<svg width="238" height="33" viewBox="0 0 238 33" fill="none" xmlns="http://www.w3.org/2000/svg">
<path d="M67.9387 0.249066C69.7829 0.249066 71.2284 1.89392 71.2284 3.68832V12.2615C71.2284 14.1058 69.7331 15.7008 67.839 15.7008C69.6832 15.7008 71.2284 17.1961 71.2284 19.14V26.9656H73.5711V32.1992H62.406V26.9157H64.9979V18.193H57.9698V26.9157H60.4122V32.1494H49.1474V26.9157H51.839V5.53255H49.0976V0.249066H67.9387ZM18.4932 0.249066C20.3374 0.249066 22.0321 1.84408 22.0321 3.68832V28.76C21.9823 30.6042 20.5368 32.1494 18.6427 32.1494H0.300049V26.9157H2.89195V5.53255H0.300049V0.249066H18.4932ZM100.985 0.249066C102.83 0.249066 104.375 1.69455 104.375 3.58863V9.96869H98.0446V5.53255H91.2159V12.8098H104.425V28.7101C104.325 30.6042 102.83 32.1494 100.936 32.1494H88.3748C86.5306 32.1494 84.9854 30.5544 84.9854 28.7101V20.9344H91.1163V26.9157H97.9948V18.193H85.0353V3.68832C85.0353 1.84408 86.5306 0.249066 88.4247 0.249066H100.985ZM125.858 0.249066C127.702 0.249066 129.247 1.74439 129.247 3.68832V14.7039C129.147 16.5481 127.652 18.1431 125.758 18.1431H115.839V26.8659H118.182V32.0995H107.116V26.8659H109.559V5.48271H107.116V0.199219H125.858V0.249066ZM185.471 0.348753C187.316 0.348753 188.861 1.84408 188.861 3.788V10.0684H182.481V5.5824H175.652V26.8659H182.73V18.1431H177.596V12.8597H188.861V32.0995H172.961V32.1494C171.116 32.1494 169.521 30.6541 169.521 28.8098V3.73816C169.521 1.89393 171.017 0.298906 172.911 0.298906H185.471V0.348753ZM142.356 0.249066V5.53255H140.013V26.8659H142.356V32.0995H131.44V26.9157H133.833V5.53255H131.44V0.249066H142.356ZM46.5057 0.249066V9.96869H40.4247V5.53255H33.1972V12.8098H42.7673V18.1431H33.1972V26.8659H40.4247V20.8846H46.5057V32.0995H24.8234V26.9157H27.1163V5.53255H24.8234V0.249066H46.5057ZM166.68 0.249066V9.96869H160.599V5.53255H153.372V12.8098H162.942V18.1431H153.372V26.8659H160.599V20.8846H166.68V32.0995H144.998V26.9157H147.291V5.53255H144.998V0.249066H166.68ZM213.384 0.249066V9.96869H207.303V5.53255H200.076V12.8098H209.646V18.1431H200.076V26.8659H207.303V20.8846H213.384V32.0995H191.602V26.9157H193.895V5.53255H191.602V0.249066H213.384ZM227.44 0.249066V5.53255H224.799V26.8659H231.876V20.8846H237.957V32.0995H216.126V26.9157H218.568V5.53255H216.175V0.249066H227.44ZM15.8016 5.53255H8.97295V26.8659H15.8016V5.53255ZM64.948 5.53255H57.92V12.8098H64.948V5.53255ZM123.017 5.53255H115.939V12.8098H123.017V5.53255Z" fill="#010202"/>
</svg>
