<svg width="24" height="32" viewBox="0 0 24 32" fill="none" xmlns="http://www.w3.org/2000/svg">
<path d="M23.1111 23.1113H-2.5807e-05V0.000218708H23.1111V23.1113Z" fill="#FCD0AF"/>
<path d="M6.04441 12.1533C6.04441 13.2221 6.33293 13.341 7.56536 13.3865V13.7773H2.66675V13.3865C3.68579 13.341 3.97483 13.2221 3.97483 12.1533V5.17914C3.97483 4.11037 3.68579 3.99021 2.69721 3.94594V3.55512H11.338L11.3995 5.80902H10.9734C10.6085 4.66689 10.2124 4.30642 8.18906 4.30642H6.62126C6.15084 4.30642 6.04434 4.4114 6.04434 4.83258V8.06544H6.81634C8.42933 8.06544 8.77942 7.77833 8.97693 6.71083H9.37246V10.3193H8.97693C8.76444 9.11651 8.1554 8.81674 6.81634 8.81674H6.04434L6.04441 12.1533ZM21.1234 3.55512H12.0555L11.845 5.81028H12.3651C12.6971 4.7061 13.1851 4.30642 14.2766 4.30642H15.5548V12.1533C15.5548 13.2221 15.2657 13.341 14.0946 13.3865V13.7773H19.0849V13.3865C17.9133 13.341 17.6243 13.2221 17.6243 12.1533V4.30642H18.9018C19.9938 4.30642 20.4824 4.7061 20.8138 5.81028H21.3334L21.1234 3.55512Z" fill="#3E474F"/>
<path d="M0.871943 27.2007C0.871943 27.4797 0.946813 27.5107 1.2634 27.5236V27.623H0.0030877V27.5236C0.264876 27.5107 0.339746 27.4797 0.339746 27.2007V25.3771C0.339746 25.0968 0.264876 25.0658 0.0100345 25.0542V24.9522H2.23517L2.25022 25.5411H2.14075C2.04671 25.2428 1.94521 25.1485 1.42421 25.1485H1.02065C0.899472 25.1485 0.871943 25.1756 0.871943 25.2867V26.1313H1.3267C1.7417 26.1313 1.83162 26.0564 1.88243 25.7775H1.98445V26.7216H1.88243C1.82763 26.4064 1.67082 26.3276 1.3267 26.3276H0.871943V27.2007ZM3.496 27.2007C3.496 27.4797 3.56984 27.5107 3.88746 27.5236V27.623H2.57132V27.5236C2.88945 27.5107 2.96278 27.4797 2.96278 27.2007V25.3771C2.96278 25.0968 2.88945 25.0658 2.57132 25.0542V24.9522H3.88746V25.0542C3.56984 25.0658 3.496 25.0968 3.496 25.3771V27.2007ZM6.63271 25.452C6.63271 25.1924 6.56182 25.0865 6.27186 25.0542V24.9522H7.2116V25.0542C6.92215 25.0865 6.85179 25.1924 6.85179 25.452V27.6889H6.71864L4.90207 25.5811V27.1258C4.90207 27.3854 4.97193 27.4913 5.26189 27.5236V27.623H4.32163V27.5236C4.6116 27.4913 4.68196 27.3854 4.68196 27.1258V25.3267C4.59204 25.1679 4.48591 25.093 4.32163 25.0542V24.9522H5.04628L6.63271 26.7926V25.452ZM8.05383 26.666L8.45326 25.6083L8.84923 26.666H8.05383ZM9.96083 27.623V27.5236C9.76131 27.5275 9.71062 27.4409 9.60867 27.1891L8.67241 24.8889H8.54376L7.56839 27.2717C7.50163 27.4371 7.41158 27.4874 7.24331 27.5236V27.623H8.08901V27.5236C7.90505 27.5236 7.81513 27.4836 7.81513 27.3544C7.81513 27.2446 7.93683 26.9489 7.96744 26.8623H8.93124C8.96237 26.9489 9.09153 27.2446 9.09153 27.3544C9.09153 27.4836 8.99401 27.5236 8.80967 27.5236V27.623H9.96083ZM12.5417 25.452C12.5417 25.1924 12.4714 25.0865 12.1819 25.0542V24.9522H13.1216V25.0542C12.8316 25.0865 12.7609 25.1924 12.7609 25.452V27.6889H12.6281L10.8109 25.5811L10.811 27.1258C10.811 27.3854 10.8813 27.4913 11.1713 27.5236V27.623H10.231V27.5236C10.521 27.4913 10.5919 27.3854 10.5919 27.1258V25.3267C10.5015 25.1679 10.3955 25.093 10.231 25.0542V24.9522H10.9557L12.5416 26.7926L12.5417 25.452ZM15.904 26.9954C15.6256 27.4719 15.2613 27.6889 14.709 27.6889C13.8437 27.6889 13.3306 27.1181 13.3306 26.2644C13.3306 25.6561 13.8085 24.8889 14.7367 24.8889C15.0146 24.8889 15.4095 25.0465 15.4688 25.0465C15.5468 25.0465 15.5703 25.0038 15.6337 24.8889H15.7664L15.8216 25.7813H15.704C15.5468 25.368 15.2694 25.0697 14.8031 25.0697C14.1763 25.0697 13.9026 25.7503 13.9026 26.2644C13.9026 26.985 14.2116 27.4681 14.8738 27.4681C15.3905 27.4681 15.6764 27.0832 15.798 26.914L15.904 26.9954ZM17.1935 27.2007C17.1935 27.4797 17.2684 27.5107 17.5854 27.5236V27.623H16.2694V27.5236C16.587 27.5107 16.6613 27.4797 16.6613 27.2007V25.3771C16.6613 25.0968 16.587 25.0658 16.2694 25.0542V24.9522H17.5854V25.0542C17.2684 25.0658 17.1935 25.0968 17.1935 25.3771V27.2007ZM18.6759 26.666L19.0753 25.6083L19.4709 26.666H18.6759ZM20.5834 27.623V27.5236C20.3834 27.5275 20.3327 27.4409 20.2312 27.1891L19.2949 24.8889H19.1659L18.1905 27.2717C18.1236 27.4371 18.0337 27.4874 17.8653 27.5236V27.623H18.711V27.5236C18.5272 27.5236 18.4373 27.4836 18.4373 27.3544C18.4373 27.2446 18.5588 26.9489 18.5899 26.8623H19.5532C19.5844 26.9489 19.7135 27.2446 19.7135 27.3544C19.7135 27.4836 19.6156 27.5236 19.4317 27.5236V27.623H20.5834ZM20.8161 27.623V27.5236C21.0708 27.512 21.1452 27.4797 21.1452 27.2007V25.3771C21.1452 25.0968 21.0708 25.0658 20.8161 25.0542V24.9522H22.0457V25.0542C21.7523 25.0658 21.6774 25.0968 21.6774 25.3771V27.2524C21.6774 27.4138 21.7246 27.4681 22.0221 27.4681C22.5001 27.4681 22.7819 27.3815 23.0091 26.9101H23.1111L22.9311 27.623H20.8161ZM0.586999 31.836C0.889439 31.8231 0.963279 31.7921 0.963279 31.5131V29.4609H0.634725C0.325209 29.4609 0.203513 29.5861 0.11758 29.9478H0L0.0627777 29.2646H2.39649L2.45927 29.9478H2.34117C2.25576 29.5861 2.13419 29.4609 1.82519 29.4609H1.49599V31.5131C1.49599 31.7921 1.57035 31.8231 1.87137 31.836V31.9354H0.586999V31.836ZM3.65732 31.5131C3.65732 31.7921 3.73219 31.8231 4.0493 31.8347V31.9354H2.73315V31.8347C3.05128 31.8231 3.12513 31.7921 3.12513 31.5131V29.6882C3.12513 29.4092 3.05128 29.3782 2.73315 29.3666V29.2633H4.0493V29.3666C3.73219 29.3782 3.65732 29.4092 3.65732 29.6882V31.5131ZM6.84471 29.2646H7.76129V29.3666C7.50658 29.3782 7.43274 29.4092 7.43274 29.6882V31.5131C7.43274 31.7921 7.50658 31.8231 7.76129 31.836V31.9354H6.56285V31.836C6.82516 31.8231 6.90003 31.7921 6.90003 31.5131V29.6339H6.89192L6.003 31.969H5.88143L5.01258 29.6339H5.0046V31.4382C5.0046 31.6978 5.07484 31.8037 5.3648 31.836V31.9354H4.42519V31.836C4.71464 31.8037 4.78501 31.6978 4.78501 31.4382V29.6223C4.78501 29.4376 4.70705 29.3666 4.42519 29.3666V29.2646H5.39246L6.10103 31.1192L6.84471 29.2646ZM8.13925 31.9354V31.836C8.39344 31.8231 8.4678 31.7921 8.4678 31.5131V29.6882C8.4678 29.4092 8.39344 29.3782 8.13925 29.3666V29.2646H10.3632L10.3789 29.8535H10.2698C10.1753 29.5551 10.0733 29.4609 9.55278 29.4609H9.14974C9.02765 29.4609 9.00103 29.488 9.00103 29.5978V30.4437H9.45475C9.86982 30.4437 9.95974 30.3688 10.0111 30.0898H10.113V31.0326H10.0111C9.95575 30.7188 9.79945 30.64 9.45475 30.64H9.00103V31.5648C9.00103 31.7249 9.04772 31.7804 9.51766 31.7804C9.99499 31.7804 10.2774 31.6939 10.5044 31.2212H10.606L10.4261 31.9354H8.13925ZM10.9523 31.0959H11.0548C11.1679 31.4498 11.5051 31.8192 11.897 31.8192C12.2332 31.8192 12.3548 31.5841 12.3548 31.3749C12.3548 30.7614 10.9764 30.6478 10.9764 29.8858C10.9763 29.5164 11.3327 29.2013 11.7397 29.2013C12.1391 29.2013 12.2799 29.3421 12.4568 29.3421C12.5312 29.3421 12.578 29.2839 12.5976 29.2013H12.6996V30.0498H12.5976C12.488 29.6649 12.2141 29.3821 11.8533 29.3821C11.5563 29.3821 11.4458 29.5745 11.4458 29.7566C11.4458 30.3016 12.8248 30.3184 12.8248 31.2574C12.8247 31.6771 12.4804 32 12.0019 32C11.5321 32 11.411 31.836 11.2266 31.836C11.1568 31.836 11.109 31.8825 11.0939 31.969H10.9522L10.9523 31.0959Z" fill="#3E474F"/>
</svg>
