<svg width="206" height="32" viewBox="0 0 206 32" fill="none" xmlns="http://www.w3.org/2000/svg">
<g clip-path="url(#clip0_927_48)">
<path d="M11.7938 10.1033V21.2317C13.2974 20.4197 14.3503 19.006 14.8614 17.4117L14.9818 17.4722C14.6507 21.4424 11.9441 25.4122 7.73339 25.4122C3.4925 25.4122 0.364502 22.2544 0.364502 17.2011C0.364502 13.4117 2.83072 11.0353 5.98895 8.89975C5.52748 8.77869 5.05225 8.71804 4.57517 8.7193C2.40939 8.7193 1.14628 10.1931 1.14628 11.6971H0.965835C0.935613 11.4864 0.935613 11.2762 0.935613 11.0655C0.935613 8.38864 2.34939 5.14019 5.77828 5.14019C7.97384 5.14019 9.65828 7.1553 12.2147 7.1553C13.2374 7.1553 14.5005 6.67397 15.0116 5.56108H15.1018C15.0721 7.51664 14.4707 9.53175 11.7938 10.1033ZM13.4178 21.5024C11.9138 23.0962 10.2898 24.45 8.1845 24.45C4.27472 24.45 1.26717 21.382 1.26717 16.9304C1.26717 14.314 2.34984 12.9006 3.55295 11.246H3.4325C2.6805 11.998 0.695613 13.8926 0.695613 17.1109C0.695613 22.0437 3.79339 25.0815 7.85383 25.0815C10.6809 25.0815 12.6058 23.1269 13.4783 21.5326L13.4178 21.5024ZM14.6205 6.9153C14.1094 7.87752 13.0267 9.11041 10.8312 9.11041C8.63561 9.11041 6.6205 7.60641 4.84584 7.60641C3.22139 7.60641 2.10895 8.68952 1.68761 9.50152L1.71784 9.56197C2.28939 8.99041 3.16139 8.41886 4.57517 8.41886C6.92095 8.41886 8.42495 9.86286 10.8009 9.86286C13.3276 9.86286 14.4703 8.20819 14.6809 6.94552L14.6205 6.9153ZM6.25917 8.99041C4.72539 10.5846 3.31161 12.3291 3.31161 15.7277C3.31161 17.5922 3.94317 19.5171 5.35695 20.7202L6.22895 20.2686V12.2086L5.41695 12.6295L5.26672 12.3286L9.47739 10.0424C8.33472 9.80241 7.31206 9.2913 6.25917 8.99041ZM11.4627 10.1633C11.2521 10.1931 11.0418 10.1931 10.8009 10.1931C10.3801 10.1931 9.98895 10.1633 9.59783 10.0726V18.8549L5.65783 20.9913C6.46983 21.5926 7.46228 21.9535 8.72539 21.9535C9.74806 21.9535 10.6503 21.7429 11.4623 21.382L11.4627 10.1633ZM7.13161 11.6975L6.56006 12.0282V20.0891L7.13161 19.7882V11.6975ZM24.4258 12.8402V23.2469C24.4258 26.134 21.8694 28.0895 19.0121 28.6606L18.9521 28.5402C20.3658 27.8482 21.1778 26.4349 21.1778 24.9309V14.1633L19.5538 12.69L18.9223 13.3815V21.7731L19.8245 22.5851V22.6455L17.3885 25.2922L14.5916 22.7357V22.6153L15.6743 21.4722V8.17841L18.8623 4.78019L18.9223 4.80997V12.8704L21.5392 10.0433L24.2761 12.51L24.7872 11.9682L25.0281 12.1793L24.4258 12.8402ZM16.0045 22.6753V22.6153L16.6361 21.9833V7.66686L16.0045 8.32908V21.6829L15.0418 22.6455V22.7055L17.3876 24.8109L17.8085 24.3295L16.0045 22.6753ZM22.1401 13.682L20.1849 11.998L19.7641 12.4491L21.5085 14.0135V24.8411C21.5085 25.5629 21.3583 26.3144 21.0876 26.7357L21.1178 26.766C21.8698 26.2242 22.1405 25.4122 22.1405 24.3597V13.682H22.1401ZM29.2081 18.8855V20.4193L32.1254 22.7051L33.8098 20.9006L34.0507 21.1411L30.1409 25.3215L26.1707 22.1335L25.5694 22.7651L25.3285 22.5246L26.0205 21.8029V14.1935L31.7049 10.0429L34.6827 14.8553L29.2081 18.8855ZM26.9823 21.5326V13.8926L26.3507 14.3442V21.8335L30.0805 24.8713L30.5618 24.3602L26.9823 21.5326ZM29.2685 12.2686L29.2081 12.2989V18.4646L31.8849 16.5095L29.2685 12.2686ZM30.0503 11.6673L29.5089 12.058L32.1561 16.2989L32.6974 15.9077L30.0503 11.6673ZM54.2876 25.2917L50.1067 21.6824L46.9187 25.2917L42.5876 21.562V15.6673H41.7454C40.9934 15.6673 40.6027 16.1486 40.4218 16.7197H40.3316C40.2356 16.3463 40.1852 15.9626 40.1814 15.5771C40.1814 14.7949 40.3921 12.75 42.5876 12.75V7.57664C42.5876 6.58419 41.4147 6.19308 41.4147 4.86952C41.4147 3.15575 43.0387 1.4713 46.0165 0.417969L46.1369 0.508191C45.0543 1.14019 44.4827 1.74152 44.4827 3.03486C44.4827 5.02019 46.4076 4.50863 46.4076 7.63663V8.83975L49.9267 5.14019L53.6263 8.7793L57.1152 5.14019L60.4836 8.44864V19.5771L54.2876 25.2917ZM43.5503 21.0811V14.7353H41.8658C40.9934 14.7353 40.6027 15.3064 40.5423 15.818L40.5721 15.8482C40.8729 15.5175 41.1738 15.3371 41.8654 15.3371H42.9178V21.4126L46.8881 24.8415L47.3392 24.2997L43.5503 21.0811ZM43.5503 7.27575C43.5503 6.04286 42.4676 5.62152 42.4676 4.83975C42.4676 3.75664 42.8885 2.85486 43.5503 2.01264L43.4903 1.98286C42.5881 2.67486 41.7458 3.78775 41.7458 4.86997C41.7458 5.95308 42.9187 6.46419 42.9187 7.42686V12.7504H43.5503V7.27575ZM49.8965 10.2837L47.6107 8.05797L46.4076 9.29086V19.938L49.1445 22.254L49.8965 21.4117V10.2837ZM50.8587 21.0211V9.86286L48.3023 7.33619L47.8209 7.81752L50.2272 10.1331V21.3517L54.2876 24.8709L54.7689 24.4193L50.8587 21.0211ZM56.6938 9.89263L54.7992 8.08775L53.7165 9.20064V19.9082L56.6641 22.4944L56.6938 22.4646V9.89263ZM57.656 9.47175L55.4605 7.33619L55.0094 7.81752L57.0245 9.74241V22.3144L57.656 21.7126V9.47175ZM70.4361 25.2917L67.5787 22.7051L65.0223 25.2917L61.8943 22.5246L61.4729 22.9757L61.2325 22.7353L61.7738 22.1637V14.1037L67.4285 10.0131L70.6769 12.5397L71.2485 11.938L71.4894 12.1789L70.8276 12.8704V21.202L72.4214 22.6753L72.9329 22.134L73.1734 22.3446L70.4361 25.2917ZM62.7365 21.9535V13.8326L62.1049 14.2837V22.2544L64.9925 24.8411L65.4738 24.3597L62.7365 21.9535ZM67.5787 14.0433L65.1125 12.1184L65.0223 12.1789V20.9309L67.0676 22.7051L67.5787 22.194V14.0433ZM68.5414 22.2242V13.5922L65.9849 11.5166L65.3836 11.9375L67.9098 13.9229V22.5246L70.4365 24.8104L70.8876 24.3291L68.5414 22.2242ZM79.1885 15.4869H82.2863V21.9233L77.5041 25.2917C76.8725 24.57 75.9698 24.0589 74.8574 24.0589C73.9552 24.0589 73.2329 24.3597 72.2707 25.1717L72.1205 25.1113L76.2112 19.1562H73.6845V13.562L78.7076 10.0731C79.3089 10.5544 79.7601 10.8246 80.5423 10.8246C81.144 10.8246 82.016 10.7042 82.6778 10.1633L82.7983 10.2233L79.1885 15.4869ZM75.8201 23.1864C74.9476 23.1864 74.256 23.4873 73.6543 23.9082V23.9686C74.1356 23.758 74.6169 23.698 75.068 23.698C75.7596 23.698 76.8427 24.0291 77.5645 24.8713L78.2565 24.3602C77.6845 23.698 76.9929 23.1864 75.8201 23.1864ZM79.0378 18.1335H77.3534L73.8343 23.2171L73.8645 23.2771C74.7365 22.6455 75.5787 22.2246 76.6014 22.2246C77.5036 22.2246 78.436 22.6455 79.0076 23.3673L79.0378 23.3375V18.1335ZM74.6467 18.1335V13.2917L74.0152 13.7429V18.7957H76.4512L76.9325 18.134L74.6467 18.1335ZM80.9329 12.2384C80.3014 12.69 79.9405 12.9304 78.8876 12.9304C78.2858 12.9304 77.564 12.6597 76.9929 12.058L76.9329 12.0882V16.4793H78.0756L80.9632 12.2682L80.9329 12.2384ZM79.4894 11.9677C78.948 11.9677 78.2565 11.6975 77.8049 11.0957L77.0529 11.6069C77.6245 12.2989 78.1658 12.5993 79.0076 12.5993C79.5489 12.5993 80.3312 12.4486 81.1432 11.7566L81.1729 11.6669C80.6623 11.878 80.0307 11.9677 79.4894 11.9677ZM80.0005 17.1415H78.0454L77.5943 17.7731H79.3689V23.6077L80.0005 23.1566V17.1415ZM92.6627 12.8402V23.2469C92.6627 26.134 90.1063 28.0895 87.2489 28.6606L87.1889 28.5402C88.6027 27.8482 89.4147 26.4349 89.4147 24.9309V14.1633L87.7907 12.69L87.1592 13.3815V21.7731L88.0614 22.5851V22.6455L85.6254 25.2922L82.8285 22.7357V22.6153L83.9112 21.4722V8.17841L87.0992 4.78019L87.1592 4.80997V12.8704L89.776 10.0433L92.5129 12.51L93.024 11.9682L93.2649 12.1793L92.6627 12.8402ZM84.2414 22.6753V22.6153L84.8729 21.9833V7.66686L84.2414 8.32864V21.6824L83.2787 22.6451V22.7051L85.6245 24.8104L86.0454 24.3291L84.2414 22.6753ZM90.3769 13.682L88.4218 11.998L88.0009 12.4491L89.7454 14.0135V24.8411C89.7454 25.5629 89.5952 26.3144 89.3245 26.7357L89.3547 26.766C90.1067 26.2242 90.3774 25.4122 90.3774 24.3597L90.3769 13.682ZM98.1369 25.2917L95.5503 22.9157L94.9485 23.5473L94.7076 23.3064L95.3996 22.5549V13.8629L94.1365 12.6597L93.6552 13.2015L93.4143 12.9606L96.1209 10.0131L98.5272 12.1789L99.1289 11.5171L99.3996 11.7277L98.6476 12.5397V21.3224L100.092 22.6757L100.753 21.9837L100.994 22.2246L98.1369 25.2917ZM96.3623 22.3446V13.3815L94.7983 11.938L94.3774 12.4193L95.7307 13.7126V22.6455L98.1369 24.8109L98.588 24.3295L96.3623 22.3446ZM97.2645 9.77264L94.7983 7.51708L97.0543 5.11086L99.5205 7.36641L97.2645 9.77264ZM95.7307 7.0353L95.2796 7.48641L97.2343 9.32108L97.6854 8.80997L95.7307 7.0353ZM110.855 25.2917L108.238 22.9157V14.1335L106.644 12.69L105.801 13.5922V21.7126L106.734 22.5846V22.7051L104.268 25.2917L101.47 22.7353V22.6451L102.553 21.5024V13.9229L101.14 12.6295L100.568 13.2611L100.328 13.0206L103.064 10.0429L105.801 12.4793V13.0806L108.659 10.0429L111.335 12.4491L111.937 11.8175L112.208 12.058L111.486 12.81V21.4117L112.839 22.6749L113.501 21.9531L113.741 22.1935L110.855 25.2917ZM102.914 22.6753V22.6153C102.914 22.6753 103.516 22.0135 103.516 22.0135V13.4713L101.801 11.9073L101.38 12.3584L102.884 13.742V21.682L101.952 22.6446V22.7046L104.268 24.81L104.748 24.2989L102.914 22.6753ZM109.2 22.4349V13.6224L107.336 11.938L106.854 12.4491L108.568 13.9829V22.7353L110.824 24.8406L111.305 24.3291L109.2 22.4349ZM119.336 30.7055C118.344 29.6229 117.652 29.1717 116.72 29.1717C115.727 29.1717 114.584 29.5629 113.411 30.1944L113.321 30.1046L117.472 25.2922L114.524 22.9464L113.952 23.5482L113.712 23.3375L114.373 22.6157V14.1037L120.088 10.0131L123.276 12.5397L123.818 11.938L124.058 12.1789L123.427 12.8704V23.1571C123.427 24.7211 124.299 24.6611 124.299 25.8335C124.299 27.1869 122.344 28.45 119.336 30.7055ZM115.336 22.3744V13.8629L114.704 14.3144V22.6455L117.682 25.0517L118.133 24.51L115.336 22.3744ZM117.441 28.39C116.449 28.39 115.546 28.6909 114.704 29.262V29.3224C115.246 29.1117 115.847 28.8411 116.87 28.8411C117.802 28.8411 118.584 29.3522 119.366 30.2549L119.968 29.7735C119.216 28.9015 118.313 28.39 117.441 28.39ZM121.111 25.5024C120.359 25.0211 120.178 24.51 120.178 23.2166V22.6749L115.185 28.4495L115.216 28.4793C116.178 27.9082 117.05 27.4873 118.464 27.4873C119.667 27.4873 120.479 27.9682 121.412 28.7504C121.983 28.2691 122.374 27.7882 122.374 27.0362C122.374 26.4349 121.862 25.9837 121.111 25.5024ZM120.178 14.0433L117.682 12.0886L117.621 12.1486V21.382L119.547 22.886L120.178 22.1642V14.0433ZM122.013 25.0815C121.231 24.4797 121.14 23.9686 121.14 22.6753V13.5322L118.614 11.4869L118.043 11.878L120.509 13.8326V23.0962C120.509 24.3895 120.569 24.7509 121.381 25.2917C122.103 25.7731 122.674 26.2842 122.674 26.9762C122.674 27.1562 122.644 27.4571 122.644 27.4571L122.674 27.4873C122.825 27.3366 123.005 27.0962 123.005 26.7051C123.006 26.0437 122.675 25.5926 122.013 25.0815ZM129.232 25.2917L126.464 23.1264L125.893 23.758L125.652 23.5171L126.314 22.7953V12.2686H124.569L124.509 12.2086L125.562 10.6442H126.313V8.62952L129.502 5.23086L129.562 5.2913V10.6446H131.968L132.028 10.7051L130.976 12.2691H129.562V21.3824L131.216 22.646L131.848 21.954L132.088 22.1944L129.232 25.2917ZM127.276 8.11797L126.645 8.80997V10.6446H127.276V8.11797ZM127.276 22.4949V12.2686H126.645V22.8557L129.201 24.8411L129.652 24.3597L127.276 22.4949ZM141.924 13.1411V21.5624L136.84 25.322L133.02 22.4349L132.569 22.946L132.329 22.7051L132.87 22.1037V13.8629L138.194 10.0429L141.743 12.8104L142.314 12.2086L142.555 12.4491L141.924 13.1411ZM133.833 21.8033V13.5922L133.201 14.0433V22.134L136.811 24.9011L137.382 24.4802L133.833 21.8033ZM138.676 14.1335L136.149 12.1482L136.119 12.1784V21.1411L138.676 23.066V14.1335ZM139.638 13.5922L136.841 11.4264L136.27 11.8473L139.007 13.9526V23.3069L139.638 22.826V13.5922ZM153.413 25.2917L150.796 22.9157V14.1335L149.202 12.69L148.36 13.5922V21.7126L149.292 22.5846V22.7051L146.826 25.2917L144.029 22.7353V22.6451L145.112 21.5024V13.9229L143.698 12.6295L143.127 13.2611L142.886 13.0206L145.623 10.0429L148.36 12.4793V13.0806L151.217 10.0429L153.894 12.4491L154.496 11.8175L154.766 12.058L154.044 12.81V21.4117L155.398 22.6749L156.06 21.9531L156.3 22.1935L153.413 25.2917ZM145.472 22.6753V22.6153C145.472 22.6753 146.074 22.0135 146.074 22.0135V13.4713L144.36 11.9073L143.939 12.3584L145.443 13.742V21.682L144.511 22.6446V22.7046L146.827 24.81L147.308 24.2989L145.472 22.6753ZM151.759 22.4349V13.6224L149.894 11.938L149.413 12.4491L151.127 13.9829V22.7353L153.383 24.8406L153.864 24.3291L151.759 22.4349ZM171.994 25.2917C171.152 24.3895 170.851 24.0886 169.858 23.818V29.7131L169.798 29.7429L168.595 28.6597L165.106 31.878L165.045 31.8482V23.758C163.993 23.9984 162.88 24.5402 161.797 25.6224L161.737 25.5926C161.948 23.2766 163.09 21.5624 165.045 20.9006V15.0357H164.413C163.541 15.0357 163.06 15.4869 162.639 16.2989H162.549C162.459 16.0286 162.398 15.6069 162.398 14.9157C162.398 13.6522 163.331 12.3291 164.865 12.3291H165.045V9.08064L163.812 7.96775L163.21 8.56952L163 8.35886L166.037 5.14064L168.864 7.7273V10.4642L169.526 9.74241V6.2833H169.857V9.44152L173.857 5.14019L177.256 8.23841V21.322L171.994 25.2917ZM165.046 22.6451C163.813 22.8855 162.941 23.6375 162.37 24.63L162.4 24.6904C163.242 23.9686 164.024 23.638 165.046 23.3971V22.6451ZM166.009 14.0135H164.355C163.212 14.0135 162.76 14.7353 162.731 15.5775L162.76 15.6073C163.121 15.0055 163.482 14.7953 164.204 14.7055H165.377V31.0971L166.009 30.4953V14.0135ZM166.009 8.5993L164.505 7.21619L164.024 7.7273L165.377 8.92997V12.3286H166.009V8.5993ZM169.528 10.3135L168.866 11.0055V28.4202L169.528 29.022V10.3135ZM173.468 9.62197L171.693 7.99797L169.859 9.9833V20.57C171.423 20.7206 172.505 21.1717 173.438 22.194L173.468 22.1642V9.62197ZM169.859 22.6451V23.4273C170.881 23.6677 171.302 23.9686 172.024 24.8104L172.716 24.2691C171.994 23.3669 171.272 22.826 169.859 22.6451ZM174.43 9.14108L172.385 7.24597L171.904 7.75708L173.799 9.50152V23.4873L174.43 23.006V9.14108ZM187.754 13.1411V21.5624L182.671 25.322L178.851 22.4349L178.4 22.946L178.159 22.7051L178.7 22.1037V13.8629L184.024 10.0429L187.573 12.8104L188.144 12.2086L188.385 12.4491L187.754 13.1411ZM179.664 21.8033V13.5922L179.032 14.0433V22.134L182.641 24.9011L183.212 24.4802L179.664 21.8033ZM184.506 14.1335L181.98 12.1482L181.949 12.1784V21.1411L184.506 23.066V14.1335ZM185.468 13.5922L182.671 11.4264L182.1 11.8473L184.837 13.9526V23.3069L185.468 22.826V13.5922ZM194.732 15.4869H197.83V21.9233L193.048 25.2917C192.416 24.57 191.514 24.0589 190.401 24.0589C189.499 24.0589 188.777 24.3597 187.814 25.1717L187.664 25.1113L191.754 19.1562H189.228V13.562L194.251 10.0731C194.852 10.5544 195.303 10.8246 196.085 10.8246C196.687 10.8246 197.559 10.7042 198.221 10.1633L198.341 10.2233L194.732 15.4869ZM191.363 23.1864C190.491 23.1864 189.799 23.4873 189.198 23.9082V23.9686C189.679 23.758 190.16 23.698 190.612 23.698C191.304 23.698 192.386 24.0291 193.108 24.8713L193.8 24.3602C193.228 23.698 192.536 23.1864 191.363 23.1864ZM194.582 18.1335H192.897L189.379 23.2171L189.408 23.2771C190.28 22.6455 191.123 22.2246 192.145 22.2246C193.048 22.2246 193.98 22.6455 194.552 23.3673L194.581 23.3375L194.582 18.1335ZM190.191 18.1335V13.2917L189.559 13.7429V18.7957H191.995L192.476 18.134L190.191 18.1335ZM196.476 12.2384C195.844 12.69 195.484 12.9304 194.431 12.9304C193.829 12.9304 193.107 12.6597 192.536 12.058L192.476 12.0882V16.4793H193.618L196.506 12.2682L196.476 12.2384ZM195.032 11.9677C194.491 11.9677 193.8 11.6975 193.348 11.0957L192.596 11.6069C193.168 12.2989 193.709 12.5993 194.552 12.5993C195.093 12.5993 195.875 12.4486 196.687 11.7566L196.717 11.6669C196.206 11.878 195.574 11.9677 195.032 11.9677ZM195.544 17.1415H193.589L193.138 17.7731H194.912V23.6077L195.544 23.1566V17.1415ZM202.823 25.2917L200.056 23.1264L199.484 23.758L199.244 23.5171L199.905 22.7953V12.2686H198.16L198.1 12.2086L199.153 10.6442H199.904V8.62952L203.093 5.23086L203.153 5.2913V10.6446H205.559L205.62 10.7051L204.567 12.2691H203.153V21.3824L204.808 22.646L205.439 21.954L205.68 22.1944L202.823 25.2917ZM200.868 8.11797L200.236 8.80997V10.6446H200.868V8.11797ZM200.868 22.4949V12.2686H200.236V22.8557L202.792 24.8411L203.244 24.3597L200.868 22.4949Z" fill="#231F20"/>
</g>
<defs>
<clipPath id="clip0_927_48">
<rect width="205.778" height="32" fill="white"/>
</clipPath>
</defs>
</svg>
