<svg width="137" height="32" viewBox="0 0 137 32" fill="none" xmlns="http://www.w3.org/2000/svg">
<path d="M21.6 19.3283C22.6946 16.978 22.9099 14.313 22.2068 11.8175C21.5036 9.32193 19.9287 7.16138 17.768 5.72828C19.504 3.94428 21.384 2.17628 23.368 0.488281C21.0533 1.86439 18.8565 3.42974 16.8 5.16828C14.5677 4.00425 11.9997 3.65415 9.53721 4.17814C7.07477 4.70213 4.87175 6.06749 3.30679 8.03956C1.74182 10.0116 0.912647 12.4672 0.961781 14.9843C1.01092 17.5014 1.93529 19.9228 3.57602 21.8323C1.50402 26.3203 1.17602 29.9203 2.96802 31.1363C4.92802 32.4403 9.18402 30.0723 11.768 26.2243C11.768 26.2243 7.81602 29.7843 5.64802 28.9683C4.31202 28.4643 4.31202 26.4163 5.40802 23.4883C7.48459 25.0117 10.036 25.7454 12.6046 25.5577C15.1732 25.3701 17.5909 24.2733 19.424 22.4643L19.808 23.1843C24.528 22.8003 38.616 22.4243 38.616 22.4243C38.584 21.7603 29.256 22.4003 21.6 19.3283ZM2.25602 14.7603C2.25772 13.1657 2.65924 11.5971 3.42384 10.1978C4.18843 8.79857 5.2917 7.61338 6.63271 6.75068C7.97371 5.88798 9.50964 5.37532 11.1 5.2596C12.6903 5.14388 14.2843 5.4288 15.736 6.08828C11.0596 10.1786 7.15511 15.0749 4.20802 20.5443C2.93796 18.884 2.25176 16.8507 2.25602 14.7603ZM11.784 24.2883C9.64492 24.2924 7.5672 23.5735 5.88802 22.2483C7.77602 17.9923 11.616 12.2803 16.856 6.69628C18.8243 7.9357 20.2713 9.85234 20.9241 12.0849C21.5769 14.3174 21.3905 16.7117 20.4 18.8163C18.7462 18.074 17.2184 17.078 15.872 15.8643L18.744 21.2563C17.8548 22.2132 16.7778 22.9764 15.5802 23.4981C14.3826 24.0198 13.0903 24.2888 11.784 24.2883Z" fill="#0033A1"/>
<path d="M86.2079 13.7683L87.9679 11.4243H81.8239L83.3359 9.41627H89.4879L91.2559 7.07227H78.9839L70.5439 18.2723H82.8159L84.5759 15.9283H78.4319L80.0559 13.7683H86.2079Z" fill="#0033A1"/>
<path d="M94.7281 7.07227L86.2881 18.2723H92.4161L100.848 7.07227H94.7281Z" fill="#0033A1"/>
<path d="M115.128 7.07227L110.848 12.7523L109.536 7.07227H104.752L96.312 18.2723H100.36L104.6 12.6483L105.904 18.2723H110.736L119.176 7.07227H115.128Z" fill="#0033A1"/>
<path d="M135.144 7.07266H125.304C124.505 7.07173 123.716 7.25706 123.001 7.61394C122.286 7.97082 121.664 8.48944 121.184 9.12866L116.104 15.8727C115.906 16.1322 115.799 16.45 115.8 16.7767C115.8 17.1742 115.957 17.5555 116.238 17.8373C116.518 18.1192 116.899 18.2785 117.296 18.2807H127.136C127.937 18.2822 128.726 18.0972 129.443 17.7403C130.159 17.3834 130.783 16.8645 131.264 16.2247L132.488 14.6247H133.912L135.688 12.2247H128.152L125.752 15.3847C125.627 15.5513 125.466 15.6866 125.28 15.7796C125.093 15.8727 124.888 15.921 124.68 15.9207H122.944C122.84 15.9207 122.74 15.8794 122.667 15.8058C122.593 15.7323 122.552 15.6326 122.552 15.5287C122.551 15.4445 122.58 15.3626 122.632 15.2967L126.632 9.93666C126.756 9.76954 126.918 9.63396 127.104 9.54085C127.29 9.44774 127.496 9.39972 127.704 9.40066H129.44C129.492 9.40066 129.543 9.4108 129.59 9.4305C129.638 9.4502 129.681 9.47908 129.717 9.51548C129.754 9.55188 129.783 9.59509 129.802 9.64265C129.822 9.69021 129.832 9.74118 129.832 9.79266C129.83 9.87637 129.802 9.95737 129.752 10.0247L129.096 10.8967H135.208L136.288 9.45666C136.457 9.23421 136.56 8.96899 136.586 8.691C136.612 8.413 136.559 8.13333 136.434 7.88361C136.309 7.63389 136.117 7.4241 135.879 7.27796C135.641 7.13182 135.367 7.05516 135.088 7.05666L135.144 7.07266Z" fill="#0033A1"/>
<path d="M73.9599 8.57609C73.9599 8.17932 73.8023 7.79881 73.5217 7.51826C73.2412 7.2377 72.8607 7.08009 72.4639 7.08009H62.6239C61.8234 7.07853 61.0336 7.26354 60.317 7.62042C59.6005 7.9773 58.977 8.49625 58.4959 9.13609L53.4159 15.8801C53.2503 16.1033 53.1498 16.3681 53.1256 16.645C53.1014 16.9219 53.1543 17.2001 53.2787 17.4487C53.403 17.6973 53.5937 17.9066 53.8298 18.0534C54.0659 18.2001 54.338 18.2786 54.6159 18.2801H64.4559C65.2564 18.2816 66.0463 18.0966 66.7628 17.7398C67.4793 17.3829 68.1029 16.8639 68.5839 16.2241L73.6639 9.48009C73.8588 9.21926 73.9628 8.90169 73.9599 8.57609ZM67.1199 10.0401L63.1199 15.3921C62.9958 15.5592 62.834 15.6948 62.6478 15.7879C62.4616 15.881 62.2561 15.929 62.0479 15.9281H60.2799C60.2078 15.9274 60.1373 15.9067 60.0761 15.8685C60.0149 15.8303 59.9655 15.7759 59.9333 15.7114C59.901 15.6469 59.8872 15.5747 59.8933 15.5029C59.8994 15.431 59.9252 15.3622 59.9679 15.3041L63.9679 9.94409C64.0934 9.77835 64.2554 9.64377 64.4413 9.55081C64.6272 9.45785 64.8321 9.40901 65.0399 9.40809H66.7759C66.8799 9.40809 66.9796 9.44939 67.0531 9.5229C67.1266 9.59642 67.1679 9.69612 67.1679 9.80009C67.1657 9.8838 67.1378 9.9648 67.0879 10.0321L67.1199 10.0401Z" fill="#0033A1"/>
<path d="M50.8161 12.9443C52.0052 12.6747 53.0599 11.9914 53.7921 11.0163L54.96 9.47229C55.1288 9.24984 55.2319 8.98461 55.2577 8.70662C55.2835 8.42862 55.231 8.14895 55.1062 7.89923C54.9813 7.64952 54.7891 7.43972 54.5512 7.29358C54.3133 7.14744 54.0392 7.07079 53.76 7.07229H41.3441L32.9041 18.2723H45.7521C46.5525 18.2738 47.3424 18.0888 48.0589 17.732C48.7755 17.3751 49.399 16.8561 49.8801 16.2163L51.0721 14.6163C51.2294 14.4094 51.3138 14.1562 51.3121 13.8963C51.3117 13.7081 51.2675 13.5225 51.1827 13.3545C51.098 13.1864 50.9752 13.0405 50.8241 12.9283L50.8161 12.9443ZM45.1361 14.4003L44.3761 15.4083C44.2515 15.5749 44.0896 15.7102 43.9035 15.8032C43.7174 15.8963 43.5121 15.9446 43.3041 15.9443H40.8001L42.4001 13.7843H44.8001C44.904 13.7843 45.0037 13.8256 45.0772 13.8991C45.1508 13.9726 45.1921 14.0723 45.1921 14.1763C45.1921 14.2604 45.1639 14.3421 45.1121 14.4083L45.1361 14.4003ZM48.4161 10.0483L47.7681 10.9043C47.6422 11.069 47.4799 11.2024 47.294 11.294C47.108 11.3856 46.9034 11.4329 46.6961 11.4323H44.1921L45.7041 9.42429H48.1041C48.1555 9.42429 48.2065 9.43443 48.2541 9.45413C48.3016 9.47383 48.3448 9.5027 48.3812 9.5391C48.4176 9.5755 48.4465 9.61872 48.4662 9.66628C48.4859 9.71383 48.4961 9.76481 48.4961 9.81629C48.4938 9.9 48.4659 9.981 48.4161 10.0483Z" fill="#0033A1"/>
</svg>
