<svg width="103" height="32" viewBox="0 0 103 32" fill="none" xmlns="http://www.w3.org/2000/svg">
<path d="M71.4678 2.45723C71.4678 2.45723 69.5554 3.21852 67.3313 5.66991C65.1071 8.12131 63.8117 10.8779 64.7704 11.611C65.1386 11.8896 65.9878 11.9427 67.5286 10.5495C68.9506 9.31486 70.0668 7.76719 70.7894 6.02817C71.7846 3.60165 71.4678 2.48708 71.4678 2.46055M83.6402 6.86742C81.1689 5.60025 79.3627 4.04781 77.4835 3.08749C75.6905 2.16698 74.5312 1.78218 73.0816 1.97624C72.8794 2.01228 72.6799 2.06216 72.4845 2.12551C72.4845 2.12551 73.2309 4.67476 70.2603 8.95724C67.2516 13.2994 64.5216 13.2696 63.7454 12.077C62.9327 10.8182 63.9826 8.25234 65.7357 5.96846C67.5718 3.58009 70.796 1.59974 70.796 1.59974C70.796 1.59974 69.7677 0.971134 67.2434 2.4025C64.7804 3.79239 60.541 7.10957 56.6068 12.704C52.6727 18.2984 51.8931 21.3767 51.3292 23.7999C50.7653 26.2231 51.2778 28.8188 53.9647 28.8188C56.6516 28.8188 59.7797 24.7205 60.6621 23.2957C62.3024 20.642 63.3722 16.5718 61.1397 17.1308C60.0401 17.4061 59.1494 18.6235 58.5872 19.7961C58.2322 20.5493 57.9608 21.339 57.7778 22.1513C56.9977 22.4728 56.265 22.8991 55.6001 23.4185C54.8603 23.9664 54.1689 24.5768 53.5335 25.2429C53.5335 25.2429 53.5434 23.3057 55.0876 20.171C56.6317 17.0362 59.4662 15.6049 61.0717 15.4705C62.518 15.3544 64.4005 16.5818 62.805 21.1097C61.2094 25.6377 56.5023 31.1425 51.5581 31.2105C46.9953 31.2735 44.0099 25.4502 50.3606 15.2881C57.3897 4.06108 65.6345 0.616196 68.3115 0.233062C70.9884 -0.150072 71.8592 1.03084 71.8592 1.03084C73.4706 0.369738 75.211 0.0827897 76.9494 0.191597C80.2185 0.412189 82.7462 2.72592 86.0833 4.35134C85.2158 5.18063 84.3882 6.05139 83.6418 6.86742M98.327 3.08749C96.0613 4.54042 92.9266 5.85733 89.9146 5.57537C89.1516 6.3632 88.3356 7.27543 87.5179 8.27058C92.7408 9.30388 97.3169 6.06798 99.75 3.31306C100.637 2.32257 101.399 1.22688 102.019 0.0506172C100.911 1.20441 99.6715 2.22372 98.3253 3.08749M91.3708 17.8025C91.4104 17.7336 91.4426 17.6608 91.467 17.5852C91.4515 17.4656 91.3955 17.3549 91.3083 17.2716C91.221 17.1883 91.1079 17.1374 90.9877 17.1274C90.4901 17.1042 89.8118 17.1988 88.0321 19.1692C86.5557 20.7963 85.2851 22.5989 84.2489 24.5364C83.2305 26.3973 82.8175 27.7839 83.403 28.1421C83.5932 28.2407 83.8138 28.2632 84.02 28.2052C84.4164 28.1106 84.8659 27.7391 85.5492 26.9479C85.8693 26.5764 86.2242 26.0506 86.6488 25.4685C87.8264 23.8663 90.7854 18.8225 91.3708 17.8025ZM72.8842 19.9454C73.1811 19.1692 73.5593 17.6449 72.7731 17.0462C71.9289 16.4109 69.776 17.902 69.7644 19.4312C69.7495 20.9969 71.2804 21.7051 71.6469 21.8047C71.8559 21.8611 71.9289 21.8528 72.03 21.6852C72.3547 21.1258 72.6401 20.5444 72.8842 19.9454ZM71.2555 22.7932C70.722 22.5468 70.2243 22.2294 69.776 21.8494C69.3265 21.4724 68.9508 21.0151 68.6681 20.501C68.6382 20.4513 68.6084 20.4894 68.5752 20.5342C68.542 20.579 68.4093 20.7 67.2616 22.3819C66.1139 24.0637 64.3508 27.5484 65.9463 28.1421C66.968 28.5219 68.6681 26.7323 69.5952 25.5464C70.2269 24.7187 70.7994 23.8474 71.3086 22.9391C71.3567 22.838 71.3086 22.8147 71.2571 22.7932M89.3557 26.8186C88.9228 27.5119 88.4285 28.842 89.8532 28.0144C91.5964 27.0077 94.0793 23.241 94.0793 23.241H95.2055C94.1808 24.8166 93.0398 26.3135 91.7921 27.7192C90.0257 29.6763 87.8712 31.4543 86.3536 31.2785C84.5806 31.0712 85.1362 28.7442 85.1362 28.7442C85.1362 28.7442 82.6002 31.4444 80.8454 31.2503C78.4753 30.9883 79.1985 28.0592 79.1985 28.0592C79.1985 28.0592 76.5182 31.3482 74.6921 31.247C71.8294 31.0811 72.5492 27.5981 73.3453 25.1451C73.7716 23.8331 74.1663 22.8031 74.1663 22.8031C74.1663 22.8031 73.8827 22.8778 73.2723 22.969C72.9539 23.0138 72.3734 23.0469 72.3734 23.0469C72.3734 23.0469 71.1808 25.15 70.2272 26.4139C69.2735 27.6777 65.2199 32.0348 62.8348 31.1624C60.6289 30.3563 61.3587 26.9795 62.6424 24.2959C64.5166 20.3833 69.7876 14.7623 72.8278 15.5053C75.9791 16.27 72.8991 22.0203 72.8991 22.0203C72.8991 22.0203 72.8991 22.0418 72.9323 22.0568C72.9953 22.08 73.1595 22.0982 73.5394 22.0236C73.933 21.9433 74.3187 21.8284 74.6921 21.6803C74.6921 21.6803 77.86 15.0459 81.3596 10.7054C84.8592 6.36486 91.8402 -1.11039 94.5802 0.697467C95.2436 1.14197 94.9451 2.67285 94.0428 4.53046C93.6364 4.66247 93.2234 4.77319 92.8055 4.86218C93.4092 3.76585 93.809 2.84202 93.9284 2.19683C94.3414 -0.0455811 89.1052 4.68471 85.3634 9.76663C83.1096 12.8303 81.1072 16.0712 79.3759 19.4578C80.0519 19.0455 80.6971 18.5849 81.3065 18.0795C82.9755 16.6956 84.5617 15.2147 86.0567 13.6444C87.4964 12.1706 88.8466 10.612 90.1004 8.97714C90.4987 8.95787 90.8957 8.9169 91.2896 8.8544C89.9226 10.7097 88.432 12.4707 86.828 14.1254C85.3352 15.6347 83.7198 17.2585 82.3166 18.4377C81.0633 19.5035 79.7413 20.4859 78.3592 21.3784C78.3592 21.3784 75.0868 27.9779 76.8665 28.4009C77.913 28.653 79.9797 25.4701 79.9797 25.4701C79.9797 25.4701 82.6765 21.3552 84.3019 19.4992C86.5195 16.9782 88.4285 15.5186 90.3359 15.4921C91.4471 15.4722 92.1023 16.6531 92.1023 16.6531L92.6247 15.8437H95.8424C95.8424 15.8437 89.8333 26.0407 89.3523 26.8086M98.3253 3.08749C96.0597 4.54042 92.9249 5.85733 89.9129 5.57537C89.15 6.3632 88.334 7.27543 87.5163 8.27058C92.7392 9.30388 97.3152 6.06798 99.7484 3.31306C100.636 2.32266 101.399 1.22697 102.019 0.0506172C100.911 1.20441 99.6715 2.22372 98.3253 3.08749ZM53.1371 8.08979H50.077L48.3471 10.8845H51.4072L53.1371 8.08979ZM38.6476 17.7677C39.9496 15.983 43.5421 9.72848 43.5421 9.72848C43.527 9.60901 43.4713 9.49837 43.3843 9.41504C43.2974 9.33172 43.1845 9.28077 43.0645 9.27071C42.5669 9.24749 41.7376 9.41501 40.0906 11.4766C38.4436 13.5383 37.1649 15.1786 36.2327 16.8853C35.211 18.7479 34.7649 20.0615 35.352 20.4181C35.5426 20.5135 35.7614 20.536 35.9674 20.4811C36.3488 20.3849 36.8481 20.0018 37.5331 19.2139C37.8548 18.8457 38.2197 18.3498 38.6476 17.7677ZM22.2276 9.30886C21.3817 8.6703 19.2305 10.1647 19.2189 11.6906C19.2057 13.258 21.1545 13.7373 21.4066 13.7489C21.4808 13.7551 21.5551 13.7395 21.6206 13.7041C21.6655 13.6779 21.7014 13.6385 21.7234 13.5913C21.9525 13.1411 22.1585 12.6794 22.3404 12.2081C22.6373 11.4318 23.0138 9.90761 22.2276 9.30886ZM20.9522 14.7042C20.3689 14.522 19.8115 14.2656 19.2936 13.9413C18.7917 13.6141 18.3836 13.162 18.1093 12.6293C18.0795 12.5796 18.0463 12.6177 18.0165 12.6625C17.9866 12.7073 17.8141 12.9229 16.6631 14.6114C15.512 16.2998 13.807 19.753 15.4042 20.3468C16.4226 20.7332 18.1425 18.9287 19.0763 17.7478C19.7751 16.8197 20.4207 15.8529 21.0102 14.8519C21.0484 14.7507 21.0102 14.7275 20.9538 14.7092M45.9454 15.7442H47.0666C47.0666 15.7442 41.449 23.8713 38.2761 23.4931C36.5047 23.2858 37.0305 21.0998 37.0305 21.0998C37.0305 21.0998 34.5426 24.0122 32.2571 23.4218C30.1839 22.8894 31.5223 19.4412 31.5223 19.4412C31.2868 19.5357 26.8003 24.5927 23.6474 23.3803C20.3484 22.1065 22.0618 17.8721 22.6887 16.5984C23.2211 15.5252 23.8099 14.4803 23.8099 14.4803C23.8099 14.4803 23.304 14.623 22.9806 14.696C22.6572 14.7689 22.1895 14.8618 22.1895 14.8618C22.1895 14.8618 20.6287 17.3978 19.6751 18.6633C18.7214 19.9288 14.6678 24.2776 12.2794 23.4118C9.89104 22.546 10.4832 19.204 11.825 16.5503C14.001 12.2462 19.1642 6.95698 22.2741 7.75974C25.4154 8.56083 22.8148 13.656 22.8148 13.656C22.8148 13.656 23.44 13.7373 24.9378 12.7156C27.0939 11.2444 29.9401 7.28704 33.0217 7.75144C34.4746 7.97038 35.828 9.45481 33.9771 12.2744C33.3866 13.18 32.3964 13.9894 31.6384 13.1883C31.1658 12.6907 31.5787 11.7835 32.0747 11.1632C32.2677 10.9103 32.5199 10.7088 32.8091 10.5763C33.0983 10.4438 33.4157 10.3845 33.7332 10.4035C33.7332 10.4035 34.2424 9.24251 32.9471 9.2591C31.8988 9.279 29.2451 11.7221 27.7474 14.1901C26.3741 16.4557 24.2926 20.3152 26.3824 21.1562C28.2981 21.9291 31.9436 17.6018 33.6321 15.3345C35.3205 13.0672 39.1684 7.92891 42.3961 7.72325C43.5073 7.65027 44.1691 8.66367 44.1691 8.66367L44.5423 8.07321H47.7699C47.7699 8.07321 41.6911 18.2171 41.2168 18.9851C40.8436 19.5855 40.3477 20.9356 41.7144 20.1792C43.081 19.4229 45.9454 15.7442 45.9454 15.7442ZM44.189 31.9983C41.8125 30.3533 38.9668 29.5228 36.0785 29.6315C35.2967 29.6529 34.531 29.8581 33.8434 30.2308C33.1559 30.6034 32.5658 31.1328 32.1211 31.7761C30.8904 29.6282 28.4573 28.3096 24.6956 28.3395C18.6169 28.4092 12.5879 31.2122 7.81117 31.2089C3.23347 31.2089 -0.105271 28.3312 0.0025377 23.2211C0.203227 14.2531 7.78132 6.17744 13.4371 2.54348C16.6979 0.455313 19.4246 -0.164999 21.2076 0.0356899C22.5079 0.179987 24.072 1.68267 23.0851 3.89688C21.6355 7.13279 19.6336 6.86741 19.7082 5.31995C19.7497 4.31319 20.4198 3.67961 20.924 3.32965C21.2441 3.10905 21.8097 3.04603 22.1049 3.03939C22.3918 2.79724 22.6025 1.02587 20.2804 1.60803C17.9584 2.1902 15.1388 4.47905 12.4619 7.43631C9.78489 10.3936 5.61686 15.983 4.58688 21.8528C4.10588 24.5745 4.42102 29.5387 10.8746 29.4823C16.3479 29.4375 24.4153 25.8334 31.8292 25.908C34.7068 25.9362 37.2113 26.7124 39.1635 27.9166C41.0808 29.0975 43.3796 30.8224 44.1956 32" fill="#E61D2B"/>
</svg>
