<svg width="80" height="32" viewBox="0 0 80 32" fill="none" xmlns="http://www.w3.org/2000/svg">
<g clip-path="url(#clip0_931_56)">
<path fill-rule="evenodd" clip-rule="evenodd" d="M79.9885 32H0V0H80V32H79.9885Z" fill="#0058AB"/>
<path fill-rule="evenodd" clip-rule="evenodd" d="M1.6001 15.9996C1.6001 23.8656 17.6931 30.3996 40.0059 30.3996C62.3185 30.3996 78.4001 23.8656 78.4001 15.9996C78.4001 8.13361 62.3071 1.59961 40.0059 1.59961C17.7046 1.59961 1.6001 8.13361 1.6001 15.9996Z" fill="#FBD914"/>
<path d="M37.1584 20.8034C37.4106 21.1615 37.6858 21.4973 38.0069 21.7995H29.3499C29.3499 21.4637 29.0174 20.781 28.6505 20.2438C28.2836 19.7065 26.2999 16.763 26.2999 16.763V20.8034C26.2999 21.1391 26.2999 21.4637 26.4719 21.7995H19.2598C19.4318 21.4637 19.4318 21.1391 19.4318 20.8034V11.2002C19.4318 10.8645 19.4318 10.5399 19.2598 10.2042H26.4719C26.2999 10.5399 26.2999 10.8645 26.2999 11.2002V15.3974C26.2999 15.3974 28.6046 12.465 29.1321 11.7822C29.5334 11.2674 30.0265 10.5398 30.0265 10.2042H37.5482C37.0322 10.5399 36.459 11.1443 35.9888 11.7039C35.576 12.1964 33.237 14.9833 33.237 14.9833C33.237 14.9833 36.6998 20.143 37.1584 20.8034ZM39.4286 11.2002V20.8034C39.4286 21.1391 39.4286 21.4637 39.2566 21.7995H53.1766V18.5761C52.8326 18.7439 52.5 18.7439 52.1561 18.7439H46.2969V17.2218H51.9267V14.7818H46.2969V13.2485H52.1561C52.5001 13.2485 52.8326 13.2485 53.1766 13.4052V10.193H39.2566C39.4286 10.5399 39.4286 10.8645 39.4286 11.2002ZM72.4626 20.8034C72.5772 21.1727 72.7722 21.5085 73.0244 21.7995H65.4797C65.5141 21.4637 65.388 21.1391 65.2504 20.8034C65.2504 20.8034 65.1357 20.5347 64.9752 20.143L64.9064 19.9751H60.5607L60.4919 20.1542C60.4919 20.1542 60.3658 20.4788 60.2511 20.8146C60.1365 21.1503 60.0103 21.4749 60.0562 21.8106H54.1053C54.3484 21.5171 54.5315 21.1786 54.6442 20.8146L58.2102 11.2114C58.3363 10.8757 58.4624 10.5511 58.4166 10.2154H68.4723C68.3806 10.5511 68.5641 10.8757 68.6902 11.2114C68.9883 11.939 72.2102 20.1542 72.4626 20.8034ZM63.9547 17.524L62.8998 14.8378C62.8081 14.5916 62.7278 14.3342 62.6705 14.0767C62.6246 14.3361 62.5555 14.5908 62.4641 14.8378C62.4297 14.9498 61.9825 16.125 61.4665 17.524H63.9547ZM15.8428 10.2042H8C8.172 10.5399 8.172 10.8645 8.172 11.2002V20.8034C8.172 21.1391 8.172 21.4637 8 21.7995H15.8428C15.6708 21.4637 15.6708 21.1391 15.6708 20.8034V11.2002C15.6708 10.8645 15.6708 10.5399 15.8428 10.2042ZM70.0546 11.1219C70.0202 10.3049 70.6738 9.62215 71.5109 9.59975H71.6141C72.4626 9.58855 73.162 10.2377 73.1734 11.0659V11.1219C73.1964 11.9614 72.5198 12.6665 71.6485 12.6889C70.7885 12.7113 70.0661 12.0509 70.0432 11.2002C70.0546 11.1778 70.0546 11.1443 70.0546 11.1219ZM70.3642 11.1219C70.3642 11.7934 70.9261 12.3419 71.6141 12.3419C72.3021 12.3419 72.8638 11.7934 72.8638 11.1219C72.8638 10.4504 72.302 9.90191 71.6141 9.90191C70.949 9.87951 70.3872 10.3832 70.3642 11.0323V11.1219ZM71.3045 12.0285H71.0293V10.193H71.7287C72.0613 10.2042 72.3135 10.4615 72.3135 10.7862C72.3135 11.01 72.1874 11.2114 71.981 11.3234L72.3823 12.0285H72.0727L71.7058 11.3794H71.3045V12.0285ZM71.3045 11.1219H71.6829C71.8663 11.1331 72.0269 10.9987 72.0269 10.8197C72.0269 10.6406 71.9007 10.4839 71.7173 10.4839H71.3045V11.1219Z" fill="#0058A3"/>
</g>
<defs>
<clipPath id="clip0_931_56">
<rect width="80" height="32" fill="white"/>
</clipPath>
</defs>
</svg>
