<svg width="43" height="32" viewBox="0 0 43 32" fill="none" xmlns="http://www.w3.org/2000/svg">
<g clip-path="url(#clip0_931_108)">
<path d="M42.1611 13.7396H26.8257V9.81445H42.1611V13.7396Z" fill="#E669A2"/>
<path d="M40.1693 13.7411H26.8257V3.92383H40.1693V13.7411Z" fill="#F3BE26"/>
<path d="M34.6564 13.7404H26.8257V0H34.6564V13.7404Z" fill="#EE9C34"/>
<path d="M36.197 13.7404H26.8257V1.5332H36.197V13.7404Z" fill="#F3BC87"/>
<path d="M26.8235 1.53516V13.7388H34.6555V1.53516H26.8235Z" fill="#E3721C"/>
<path d="M18.9731 13.7402H26.8256V15.703H18.9731V13.7402Z" fill="#AD1B02"/>
<path d="M26.8235 3.92188V13.7401H36.2014V3.92188H26.8235Z" fill="#E88D14"/>
<path d="M26.8235 3.92188V13.7401H34.6555V3.92188H26.8235Z" fill="#D85604"/>
<path d="M31.7226 13.7401H26.8257V7.84766H31.7226V13.7401Z" fill="#C14303"/>
<path d="M26.8235 9.81836V13.7395H40.1738V9.81836H26.8235Z" fill="#DB4E18"/>
<path d="M26.8235 9.81836V13.7395H36.2014V9.81836H26.8235Z" fill="#D1390D"/>
<path d="M26.8235 9.81836V13.7395H34.6555V9.81836H26.8235Z" fill="#C22303"/>
<path d="M26.8235 9.81836V13.7395H31.7275V9.81836H26.8235Z" fill="#AD1B02"/>
<path d="M28.533 21.1329C27.1969 21.3704 26.4843 22.3799 26.4843 24.1317C26.4843 25.9131 27.4344 27.1008 28.8299 27.1008C29.5128 27.1008 30.1066 26.8633 31.3536 26.2397C31.3536 27.6946 31.3536 27.6946 31.3536 27.6946C29.8394 28.4072 28.9487 28.5853 27.761 28.5853C26.4249 28.5853 25.4748 28.2587 24.7326 27.4571C23.9606 26.6851 23.5449 25.6756 23.5449 24.5177C23.5449 21.9939 25.4451 20.2422 28.2064 20.2422C30.0175 20.2422 31.2942 21.1032 31.2942 22.3205C31.2942 23.1222 30.7004 23.6863 29.8394 23.6863C29.394 23.6863 29.0377 23.5379 28.533 23.2707" fill="black"/>
<path d="M21.8524 24.5177C23.0697 23.0034 23.5151 22.3799 23.5151 21.6377C23.5151 20.8954 22.9213 20.2422 22.0899 20.2422C21.6149 20.2422 21.1695 20.5094 20.9617 20.7469C20.9617 23.8645 20.9617 23.8645 20.9617 23.8645C18.9724 26.5367 18.9724 26.5367 18.9724 26.5367C18.9724 20.4797 18.9724 20.4797 18.9724 20.4797C17.0722 20.4797 17.0722 20.4797 17.0722 20.4797C13.925 25.6756 13.925 25.6756 13.925 25.6756C13.925 20.4797 13.925 20.4797 13.925 20.4797C12.8561 20.4797 12.8561 20.4797 12.8561 20.4797C9.97607 21.1329 9.97607 21.1329 9.97607 21.1329C9.97607 21.8752 9.97607 21.8752 9.97607 21.8752C11.5497 22.0236 11.5497 22.0236 11.5497 22.0236C11.5497 28.4666 11.5497 28.4666 11.5497 28.4666C13.539 28.4666 13.539 28.4666 13.539 28.4666C16.5674 23.4785 16.5674 23.4785 16.5674 23.4785C16.5674 28.4666 16.5674 28.4666 16.5674 28.4666C18.7943 28.4666 18.7943 28.4666 18.7943 28.4666" fill="black"/>
<path d="M3.94889 27.4563C4.18641 27.4563 4.24579 27.4563 4.39425 27.4563C5.99756 27.4563 6.88828 26.4765 6.88828 24.5169C6.88828 22.8839 6.1757 21.9932 4.83961 21.9932C4.66147 21.9932 4.39425 22.0229 3.94889 22.1119V27.4563ZM3.94889 30.9598C5.25528 31.2567 5.25528 31.2567 5.25528 31.2567C5.25528 31.999 5.25528 31.999 5.25528 31.999C0.118763 31.999 0.118764 31.999 0.118764 31.999C0.118764 31.2567 0.118764 31.2567 0.118764 31.2567C1.3064 30.9598 1.3064 30.9598 1.3064 30.9598C1.3064 21.9932 1.3064 21.9932 1.3064 21.9932C-1.60832e-07 21.9932 0 21.9932 0 21.9932C0 21.2509 0 21.2509 0 21.2509C3.11754 20.3008 3.11754 20.3008 3.11754 20.3008C3.94889 20.3008 3.94889 20.3008 3.94889 20.3008C3.94889 21.3697 3.94889 21.3697 3.94889 21.3697C5.40374 20.4789 5.90848 20.3305 6.68045 20.3305C8.40252 20.3305 9.70891 21.9338 9.70891 24.1606C9.70891 26.714 7.95715 28.4658 5.28497 28.4658C4.98807 28.4658 4.48332 28.4361 3.94889 28.4064" fill="black"/>
</g>
<defs>
<clipPath id="clip0_931_108">
<rect width="42.161" height="32" fill="white"/>
</clipPath>
</defs>
</svg>
